<?xml version="1.0" encoding="UTF-8" standalone="no"?>
<svg
   xmlns:dc="http://purl.org/dc/elements/1.1/"
   xmlns:cc="http://creativecommons.org/ns#"
   xmlns:rdf="http://www.w3.org/1999/02/22-rdf-syntax-ns#"
   xmlns:svg="http://www.w3.org/2000/svg"
   xmlns="http://www.w3.org/2000/svg"
   xmlns:sodipodi="http://sodipodi.sourceforge.net/DTD/sodipodi-0.dtd"
   xmlns:inkscape="http://www.inkscape.org/namespaces/inkscape"
   width="165.10001mm"
   height="165.10001mm"
   viewBox="0 0 165.10001 165.10001"
   version="1.1"
   id="svg8"
   inkscape:version="1.0.2 (1.0.2+r75+1)"
   sodipodi:docname="ww-logo.svg">
  <defs
     id="defs2" />
  <sodipodi:namedview
     inkscape:showpageshadow="false"
     id="base"
     pagecolor="#272727"
     bordercolor="#666666"
     borderopacity="1.0"
     inkscape:pageopacity="0"
     inkscape:pageshadow="2"
     inkscape:zoom="0.7"
     inkscape:cx="141.78259"
     inkscape:cy="355.02933"
     inkscape:document-units="mm"
     inkscape:current-layer="layer2"
     inkscape:document-rotation="0"
     showgrid="false"
     fit-margin-top="0"
     fit-margin-left="0"
     fit-margin-right="0"
     fit-margin-bottom="0"
     inkscape:window-width="1920"
     inkscape:window-height="1002"
     inkscape:window-x="0"
     inkscape:window-y="28"
     inkscape:window-maximized="1" />
  <metadata
     id="metadata5">
    <rdf:RDF>
      <cc:Work
         rdf:about="">
        <dc:format>image/svg+xml</dc:format>
        <dc:type
           rdf:resource="http://purl.org/dc/dcmitype/StillImage" />
        <dc:title></dc:title>
      </cc:Work>
    </rdf:RDF>
  </metadata>
  <g
     inkscape:groupmode="layer"
     id="layer2"
     inkscape:label="Contents"
     transform="translate(-163.13452,-152.55119)">
    <path
       style="fill:#ffffff;stroke-width:0.264583"
       d="m 239.7314,317.34922 c -32.77365,-2.15312 -62.02186,-24.92921 -72.32261,-56.31886 -6.86921,-20.93266 -5.24271,-43.42945 4.54567,-62.87296 14.7442,-29.28768 45.86248,-47.34671 78.14013,-45.34747 15.43926,0.9563 28.77413,5.3672 41.17137,13.61865 l 3.23419,2.15264 -0.0566,20.49384 c -0.0311,11.27161 -0.0609,34.0372 -0.0661,50.5902 -0.005,16.55299 -0.11109,30.09635 -0.23522,30.09635 -0.12412,0 -5.09498,-4.11485 -11.04635,-9.14411 -5.95137,-5.02926 -12.84474,-10.85461 -15.3186,-12.94523 -13.56766,-11.46583 -20.72086,-17.50495 -21.10813,-17.82062 -0.38258,-0.31183 -1.04731,0.16279 -5.49535,3.92375 -2.78308,2.35317 -5.09924,4.23921 -5.14702,4.19121 -0.0478,-0.048 -0.11985,-3.12338 -0.16014,-6.83417 l -0.0733,-6.74687 5.2263,-4.43408 5.2263,-4.43408 3.36256,2.84658 c 1.84941,1.56562 8.64936,7.31142 15.11101,12.76845 6.46165,5.45704 13.30538,11.24655 15.20829,12.86558 l 3.45985,2.94371 0.16155,-10.88121 c 0.0889,-5.98466 0.17814,-22.96844 0.19843,-37.74173 l 0.0369,-26.86052 -2.71198,-1.50013 c -8.60965,-4.7624 -18.67475,-7.80079 -28.82316,-8.70095 -4.36443,-0.38712 -13.30378,-0.16513 -17.1482,0.42584 -16.16787,2.48535 -30.37877,9.63279 -41.81419,21.03066 -11.15109,11.11446 -18.23984,25.00373 -20.93074,41.01042 -0.52995,3.15238 -0.60047,4.48855 -0.60047,11.37708 0,8.6927 0.31088,11.41594 2.09922,18.38855 7.67476,29.92344 33.22818,52.05555 63.85571,55.30618 22.44787,2.38248 44.43607,-5.37576 60.36957,-21.30062 9.33865,-9.33358 15.91757,-20.73464 19.31733,-33.47633 2.68845,-10.0758 3.13354,-22.64329 1.15671,-32.66049 -2.64079,-13.38167 -8.07459,-24.57659 -16.89528,-34.80833 l -2.50905,-2.91042 -0.01,-5.4901 c -0.006,-3.0924 0.0944,-5.49011 0.22877,-5.49011 0.38174,0 5.46765,4.93069 7.89849,7.65741 26.07371,29.24746 27.93766,72.83969 4.45155,104.10872 -14.65042,19.50534 -36.58439,31.37909 -60.87058,32.95172 -4.69803,0.30421 -6.1125,0.30063 -11.11702,-0.0281 z m -19.18229,-76.93407 v -43.63397 l 5.1593,-4.9832 c 2.83761,-2.74076 5.27798,-5.02276 5.42304,-5.07111 0.17421,-0.0581 0.2865,12.5027 0.3308,37.00423 l 0.0671,37.09215 7.09148,-6.13713 c 3.90032,-3.37542 7.23407,-6.07738 7.40833,-6.00435 0.17427,0.073 3.41248,2.81179 7.19602,6.08612 l 6.87917,5.95334 0.0708,-6.46001 c 0.0389,-3.55302 0.17103,-6.46002 0.29358,-6.46002 0.12255,0 2.50173,1.97474 5.28705,4.38831 l 5.06422,4.38831 v 13.60336 c 0,7.48184 -0.0741,13.60335 -0.16464,13.60335 -0.0906,0 -1.48955,-1.15012 -3.10886,-2.55582 -9.04382,-7.85081 -21.42017,-18.48855 -21.58421,-18.55211 -0.10441,-0.0405 -5.77579,4.7504 -12.60305,10.64634 -6.82726,5.89594 -12.5025,10.7213 -12.61164,10.72303 -0.10914,0.002 -0.19843,-19.63214 -0.19843,-43.63082 z m -23.37891,30.22103 c -0.093,-0.093 -0.16901,-11.56823 -0.16901,-25.50061 v -25.3316 l 5.18089,-4.98524 c 2.84949,-2.74188 5.28948,-5.02467 5.42221,-5.07286 0.14356,-0.0521 0.26883,7.65109 0.30922,19.01468 l 0.0679,19.10228 4.10104,-3.46598 c 2.25557,-1.90628 4.19034,-3.46797 4.29948,-3.4704 0.10914,-0.002 0.19843,3.06144 0.19842,6.8086 l -2e-5,6.81302 -8.79738,7.44254 c -4.83856,4.09339 -9.16781,7.75124 -9.62055,8.12856 -0.45275,0.37731 -0.89923,0.60997 -0.99219,0.51701 z m 68.15964,-44.59554 -5.09323,-4.53229 v -17.67754 c 0,-9.72264 0.0904,-17.67753 0.20098,-17.67753 0.11054,0 2.49179,2.29307 5.29167,5.09571 l 5.09068,5.09571 v 17.12929 c 0,9.42111 -0.0893,17.12246 -0.19843,17.11412 -0.10914,-0.008 -2.4904,-2.05471 -5.29167,-4.54747 z"
       id="path860" />
  </g>
</svg>
